# xmcd
#
# Track frame offsets: 
#        150
#        14939
#        27615
#        46896
#        64658
#        92037
#        108632
#        121124
#        138898
#        156192
#        169374
#        183368
#        201695
#        218460
#        231268
#        246405
#        258137
#
# Disc length: 3712 seconds
#
# Revision: 1
# Processed by: cddbd v1.5.2PL0 Copyright (c) Steve Scherf et al.
# Submitted via: ExactAudioCopy v1.3
#
DISCID=f90e7e11
DTITLE=Dickie Peltier - 25 Miles From Texas
DYEAR=1995
DGENRE=Blues
TTITLE0=25 Miles From Texas
TTITLE1=Slow Dancin'
TTITLE2=Gonna Be Alright
TTITLE3=See Me Cry
TTITLE4=Good Times
TTITLE5=Makin' Tracks
TTITLE6=Two Timin' Lovin'
TTITLE7=Fadin' Out
TTITLE8=Movin' On
TTITLE9=Never Met A Woman
TTITLE10=I'm Comin' Home
TTITLE11=Slow Blues In B
TTITLE12=Patty Cakes
TTITLE13=You Know I Love You
TTITLE14=Bad Bad Feelin'
TTITLE15=Tornado Warnin'
TTITLE16=Goin' Back To Texas
EXTD=
EXTT0=
EXTT1=
EXTT2=
EXTT3=
EXTT4=
EXTT5=
EXTT6=
EXTT7=
EXTT8=
EXTT9=
EXTT10=
EXTT11=
EXTT12=
EXTT13=
EXTT14=
EXTT15=
EXTT16=
PLAYORDER=
